<?xml version="1.0" standalone="no"?>
<!DOCTYPE svg PUBLIC "-//W3C//DTD SVG 20010904//EN"
 "http://www.w3.org/TR/2001/REC-SVG-20010904/DTD/svg10.dtd">
<svg version="1.0" xmlns="http://www.w3.org/2000/svg"
 width="512.000000pt" height="512.000000pt" viewBox="0 0 512.000000 512.000000"
 preserveAspectRatio="xMidYMid meet">

<g transform="translate(0.000000,512.000000) scale(0.100000,-0.100000)"
fill="#000000" stroke="none">
<path d="M2560 4568 l0 -555 108 -6 c129 -8 285 -42 408 -90 116 -45 159 -67
264 -134 286 -186 497 -457 601 -776 36 -109 69 -294 69 -383 l0 -64 555 0
555 0 0 39 c0 89 -23 304 -46 427 -129 704 -557 1329 -1174 1714 -350 219
-781 352 -1215 376 l-125 7 0 -555z"/>
<path d="M2458 3395 c-179 -45 -308 -183 -339 -364 -14 -79 -6 -123 32 -166
40 -45 95 -62 148 -46 50 14 98 69 106 118 12 77 26 112 55 137 62 52 154 43
209 -19 59 -67 50 -151 -22 -208 -181 -141 -244 -264 -235 -459 3 -82 17 -112
72 -152 39 -30 120 -29 162 1 46 33 64 79 64 163 0 92 18 130 80 170 146 94
228 250 217 414 -9 138 -63 242 -174 332 -97 79 -248 111 -375 79z"/>
<path d="M5 2443 c21 -363 107 -696 260 -1008 204 -415 514 -765 901 -1019 56
-36 106 -66 111 -66 10 0 553 931 553 947 0 5 -35 31 -77 60 -373 247 -612
661 -640 1106 l-6 97 -554 0 -555 0 7 -117z"/>
<path d="M2505 1896 c-102 -44 -122 -172 -40 -245 63 -55 142 -53 200 4 115
116 -11 306 -160 241z"/>
<path d="M3237 1276 c-21 -13 -76 -38 -124 -57 l-85 -34 -180 -268 c-180 -269
-212 -307 -265 -307 l-23 0 0 -306 0 -307 125 7 c361 20 683 104 1005 262
l152 74 -35 62 c-137 244 -517 893 -524 895 -4 1 -25 -8 -46 -21z"/>
</g>
</svg>
